<svg xmlns="http://www.w3.org/2000/svg" viewBox="0 0 512 512">
  <defs>
    <linearGradient id="g" x1="0%" y1="0%" x2="100%" y2="100%">
      <stop offset="0%" stop-color="#f43f5e"/>
      <stop offset="100%" stop-color="#e11d48"/>
    </linearGradient>
  </defs>
  <rect width="512" height="512" rx="96" fill="url(#g)"/>
  <path d="M256 410c-6.4 0-12.5-2.3-17.3-6.5C220.5 387.7 128 303.2 128 228c0-44.2 35.8-80 80-80 24.8 0 48 13.6 48 13.6s23.2-13.6 48-13.6c44.2 0 80 35.8 80 80 0 75.2-92.5 159.7-110.7 175.5-4.8 4.2-10.9 6.5-17.3 6.5z" fill="white" fill-opacity="0.95"/>
  <circle cx="256" cy="270" r="28" fill="none" stroke="#f43f5e" stroke-width="6"/>
  <circle cx="256" cy="242" r="8" fill="#f43f5e"/>
</svg>
